<?xml version="1.0" encoding="utf-8"?>
<!-- Generator: Adobe Illustrator 24.1.3, SVG Export Plug-In . SVG Version: 6.00 Build 0)  -->
<svg version="1.1" id="Calque_1" xmlns="http://www.w3.org/2000/svg" xmlns:xlink="http://www.w3.org/1999/xlink" x="0px" y="0px"
	 viewBox="0 0 22 15" style="enable-background:new 0 0 22 15;" xml:space="preserve">
<g id="Groupe_1" transform="translate(-316 -39)">
	<path id="Rectangle_615" d="M317,39h20c0.6,0,1,0.4,1,1l0,0c0,0.6-0.4,1-1,1h-20c-0.6,0-1-0.4-1-1l0,0C316,39.4,316.4,39,317,39z"
		/>
	<path id="Rectangle_616" d="M317,45.5h20c0.6,0,1,0.4,1,1l0,0c0,0.6-0.4,1-1,1h-20c-0.6,0-1-0.4-1-1l0,0
		C316,45.9,316.4,45.5,317,45.5z"/>
	<path id="Rectangle_617" d="M317,52h20c0.6,0,1,0.4,1,1l0,0c0,0.6-0.4,1-1,1h-20c-0.6,0-1-0.4-1-1l0,0C316,52.4,316.4,52,317,52z"
		/>
</g>
</svg>
