<?xml version="1.0" encoding="utf-8"?>
<!-- Generator: Adobe Illustrator 24.1.3, SVG Export Plug-In . SVG Version: 6.00 Build 0)  -->
<svg version="1.1" id="Calque_1" xmlns="http://www.w3.org/2000/svg" xmlns:xlink="http://www.w3.org/1999/xlink" x="0px" y="0px"
	 viewBox="0 0 19 19" style="enable-background:new 0 0 19 19;" xml:space="preserve">
<path id="noun_avatar_2102861_2_" d="M17.1,13.8l-4.2-1.7c-0.2-0.1-0.4-0.3-0.4-0.5l0-1c0-0.1,0-0.3,0.1-0.4c1.1-1.4,1.7-3.2,1.7-5
	c0-3.1-2-5.2-4.9-5.2S4.6,2.1,4.6,5.2c0,1.8,0.6,3.6,1.7,5c0.1,0.1,0.1,0.2,0.1,0.4l0,1c0,0.2-0.2,0.5-0.4,0.5l-4.2,1.7
	C0.7,14.3,0,15.4,0,16.6v1.6C0,18.6,0.4,19,0.8,19h17.4c0.4,0,0.8-0.4,0.8-0.8v-1.6C19,15.4,18.3,14.3,17.1,13.8z M17.4,15.2H1.6
	v1.4c0-0.6,0.3-1.1,0.9-1.3l14.1,0c0.8-0.3-5.1-4.3-7-4.7l2,2.8c0-0.5,1.7-6.3,1.4-6.7c-1.3-0.2,1,1.1,1-0.4c0-2.7-0.7-6.5-4.4-4.7
	c-1.4,0.7,3.3,0.9,3.3,3.6c0,1.5-0.5,2.9-1.4,4c-0.3,0.4-0.5,0.9-0.5,1.3v1c0,0.9,0.5,1.7,1.4,2l4.2,1.7c0.5,0.2,0.9,0.7,0.9,1.3
	L17.4,15.2z"/>
</svg>
